<?xml version="1.0" encoding="UTF-8"?>
<svg xmlns="http://www.w3.org/2000/svg" width="760" height="560" viewBox="0 0 760 560" role="img" aria-label="Mock shipping label">
  <rect width="760" height="560" fill="#f8fafc"/>
  <rect x="24" y="24" width="712" height="512" rx="24" fill="#ffffff" stroke="#d1d5db" stroke-width="2"/>
  <rect x="48" y="48" width="204" height="44" rx="12" fill="#111827"/>
    <text x="150" y="77" text-anchor="middle" font-size="22" font-family="Arial, sans-serif" font-weight="700" fill="#f9fafb">SHIPPING LABEL</text>
  <text x="48" y="132" font-size="30" font-family="Arial, sans-serif" font-weight="700" fill="#111827">Mock Carrier - Standard</text>
  <text x="48" y="168" font-size="18" font-family="Arial, sans-serif" fill="#4b5563">Order reference: Order #1</text>
  <text x="48" y="198" font-size="18" font-family="Arial, sans-serif" fill="#4b5563">Tracking number: MOCK-1-STANDARD-A1</text>
  <rect x="48" y="226" width="356" height="198" rx="18" fill="#f8fafc" stroke="#e5e7eb" stroke-width="2"/>
  <text x="72" y="258" font-size="18" font-family="Arial, sans-serif" font-weight="700" fill="#111827">Ship to</text>
  <text x="72" y="286" font-size="18" font-family="Arial, sans-serif" fill="#111827">E2E Customer</text><text x="72" y="310" font-size="18" font-family="Arial, sans-serif" fill="#111827">E2E Main Street 1</text><text x="72" y="334" font-size="18" font-family="Arial, sans-serif" fill="#111827">00000 E2E City, US</text><text x="72" y="358" font-size="18" font-family="Arial, sans-serif" fill="#111827">+10000000000</text>
    <rect x="440" y="64" width="256" height="244" rx="16" fill="#f3f4f6" stroke="#d1d5db" stroke-width="2"/>
    <text x="456" y="90" font-size="16" font-family="Arial, sans-serif" font-weight="700" fill="#374151">QR code</text>
    <text x="456" y="112" font-size="13" font-family="Arial, sans-serif" fill="#6b7280">Carrier scan reference</text>
    <g aria-label="QR code"><rect x="506" y="122" width="121" height="121" rx="10" fill="#ffffff" stroke="#d1d5db" stroke-width="1.5"/><rect x="514" y="130" width="5" height="5" fill="#111827"/><rect x="519" y="130" width="5" height="5" fill="#111827"/><rect x="524" y="130" width="5" height="5" fill="#111827"/><rect x="529" y="130" width="5" height="5" fill="#111827"/><rect x="534" y="130" width="5" height="5" fill="#111827"/><rect x="539" y="130" width="5" height="5" fill="#111827"/><rect x="544" y="130" width="5" height="5" fill="#111827"/><rect x="554" y="130" width="5" height="5" fill="#111827"/><rect x="559" y="130" width="5" height="5" fill="#111827"/><rect x="569" y="130" width="5" height="5" fill="#111827"/><rect x="584" y="130" width="5" height="5" fill="#111827"/><rect x="589" y="130" width="5" height="5" fill="#111827"/><rect x="594" y="130" width="5" height="5" fill="#111827"/><rect x="599" y="130" width="5" height="5" fill="#111827"/><rect x="604" y="130" width="5" height="5" fill="#111827"/><rect x="609" y="130" width="5" height="5" fill="#111827"/><rect x="614" y="130" width="5" height="5" fill="#111827"/><rect x="514" y="135" width="5" height="5" fill="#111827"/><rect x="544" y="135" width="5" height="5" fill="#111827"/><rect x="549" y="135" width="5" height="5" fill="#111827"/><rect x="554" y="135" width="5" height="5" fill="#111827"/><rect x="559" y="135" width="5" height="5" fill="#111827"/><rect x="569" y="135" width="5" height="5" fill="#111827"/><rect x="574" y="135" width="5" height="5" fill="#111827"/><rect x="579" y="135" width="5" height="5" fill="#111827"/><rect x="584" y="135" width="5" height="5" fill="#111827"/><rect x="614" y="135" width="5" height="5" fill="#111827"/><rect x="514" y="140" width="5" height="5" fill="#111827"/><rect x="524" y="140" width="5" height="5" fill="#111827"/><rect x="529" y="140" width="5" height="5" fill="#111827"/><rect x="534" y="140" width="5" height="5" fill="#111827"/><rect x="544" y="140" width="5" height="5" fill="#111827"/><rect x="554" y="140" width="5" height="5" fill="#111827"/><rect x="579" y="140" width="5" height="5" fill="#111827"/><rect x="584" y="140" width="5" height="5" fill="#111827"/><rect x="594" y="140" width="5" height="5" fill="#111827"/><rect x="599" y="140" width="5" height="5" fill="#111827"/><rect x="604" y="140" width="5" height="5" fill="#111827"/><rect x="614" y="140" width="5" height="5" fill="#111827"/><rect x="514" y="145" width="5" height="5" fill="#111827"/><rect x="524" y="145" width="5" height="5" fill="#111827"/><rect x="529" y="145" width="5" height="5" fill="#111827"/><rect x="534" y="145" width="5" height="5" fill="#111827"/><rect x="544" y="145" width="5" height="5" fill="#111827"/><rect x="554" y="145" width="5" height="5" fill="#111827"/><rect x="569" y="145" width="5" height="5" fill="#111827"/><rect x="574" y="145" width="5" height="5" fill="#111827"/><rect x="584" y="145" width="5" height="5" fill="#111827"/><rect x="594" y="145" width="5" height="5" fill="#111827"/><rect x="599" y="145" width="5" height="5" fill="#111827"/><rect x="604" y="145" width="5" height="5" fill="#111827"/><rect x="614" y="145" width="5" height="5" fill="#111827"/><rect x="514" y="150" width="5" height="5" fill="#111827"/><rect x="524" y="150" width="5" height="5" fill="#111827"/><rect x="529" y="150" width="5" height="5" fill="#111827"/><rect x="534" y="150" width="5" height="5" fill="#111827"/><rect x="544" y="150" width="5" height="5" fill="#111827"/><rect x="549" y="150" width="5" height="5" fill="#111827"/><rect x="554" y="150" width="5" height="5" fill="#111827"/><rect x="559" y="150" width="5" height="5" fill="#111827"/><rect x="564" y="150" width="5" height="5" fill="#111827"/><rect x="569" y="150" width="5" height="5" fill="#111827"/><rect x="579" y="150" width="5" height="5" fill="#111827"/><rect x="584" y="150" width="5" height="5" fill="#111827"/><rect x="594" y="150" width="5" height="5" fill="#111827"/><rect x="599" y="150" width="5" height="5" fill="#111827"/><rect x="604" y="150" width="5" height="5" fill="#111827"/><rect x="614" y="150" width="5" height="5" fill="#111827"/><rect x="514" y="155" width="5" height="5" fill="#111827"/><rect x="544" y="155" width="5" height="5" fill="#111827"/><rect x="549" y="155" width="5" height="5" fill="#111827"/><rect x="554" y="155" width="5" height="5" fill="#111827"/><rect x="559" y="155" width="5" height="5" fill="#111827"/><rect x="564" y="155" width="5" height="5" fill="#111827"/><rect x="569" y="155" width="5" height="5" fill="#111827"/><rect x="579" y="155" width="5" height="5" fill="#111827"/><rect x="584" y="155" width="5" height="5" fill="#111827"/><rect x="614" y="155" width="5" height="5" fill="#111827"/><rect x="514" y="160" width="5" height="5" fill="#111827"/><rect x="519" y="160" width="5" height="5" fill="#111827"/><rect x="524" y="160" width="5" height="5" fill="#111827"/><rect x="529" y="160" width="5" height="5" fill="#111827"/><rect x="534" y="160" width="5" height="5" fill="#111827"/><rect x="539" y="160" width="5" height="5" fill="#111827"/><rect x="544" y="160" width="5" height="5" fill="#111827"/><rect x="549" y="160" width="5" height="5" fill="#111827"/><rect x="554" y="160" width="5" height="5" fill="#111827"/><rect x="559" y="160" width="5" height="5" fill="#111827"/><rect x="584" y="160" width="5" height="5" fill="#111827"/><rect x="589" y="160" width="5" height="5" fill="#111827"/><rect x="594" y="160" width="5" height="5" fill="#111827"/><rect x="599" y="160" width="5" height="5" fill="#111827"/><rect x="604" y="160" width="5" height="5" fill="#111827"/><rect x="609" y="160" width="5" height="5" fill="#111827"/><rect x="614" y="160" width="5" height="5" fill="#111827"/><rect x="519" y="165" width="5" height="5" fill="#111827"/><rect x="524" y="165" width="5" height="5" fill="#111827"/><rect x="529" y="165" width="5" height="5" fill="#111827"/><rect x="534" y="165" width="5" height="5" fill="#111827"/><rect x="539" y="165" width="5" height="5" fill="#111827"/><rect x="544" y="165" width="5" height="5" fill="#111827"/><rect x="564" y="165" width="5" height="5" fill="#111827"/><rect x="569" y="165" width="5" height="5" fill="#111827"/><rect x="579" y="165" width="5" height="5" fill="#111827"/><rect x="594" y="165" width="5" height="5" fill="#111827"/><rect x="599" y="165" width="5" height="5" fill="#111827"/><rect x="604" y="165" width="5" height="5" fill="#111827"/><rect x="519" y="170" width="5" height="5" fill="#111827"/><rect x="529" y="170" width="5" height="5" fill="#111827"/><rect x="534" y="170" width="5" height="5" fill="#111827"/><rect x="549" y="170" width="5" height="5" fill="#111827"/><rect x="559" y="170" width="5" height="5" fill="#111827"/><rect x="564" y="170" width="5" height="5" fill="#111827"/><rect x="569" y="170" width="5" height="5" fill="#111827"/><rect x="579" y="170" width="5" height="5" fill="#111827"/><rect x="584" y="170" width="5" height="5" fill="#111827"/><rect x="589" y="170" width="5" height="5" fill="#111827"/><rect x="514" y="175" width="5" height="5" fill="#111827"/><rect x="524" y="175" width="5" height="5" fill="#111827"/><rect x="529" y="175" width="5" height="5" fill="#111827"/><rect x="559" y="175" width="5" height="5" fill="#111827"/><rect x="584" y="175" width="5" height="5" fill="#111827"/><rect x="589" y="175" width="5" height="5" fill="#111827"/><rect x="594" y="175" width="5" height="5" fill="#111827"/><rect x="604" y="175" width="5" height="5" fill="#111827"/><rect x="609" y="175" width="5" height="5" fill="#111827"/><rect x="519" y="180" width="5" height="5" fill="#111827"/><rect x="524" y="180" width="5" height="5" fill="#111827"/><rect x="554" y="180" width="5" height="5" fill="#111827"/><rect x="564" y="180" width="5" height="5" fill="#111827"/><rect x="569" y="180" width="5" height="5" fill="#111827"/><rect x="574" y="180" width="5" height="5" fill="#111827"/><rect x="579" y="180" width="5" height="5" fill="#111827"/><rect x="584" y="180" width="5" height="5" fill="#111827"/><rect x="589" y="180" width="5" height="5" fill="#111827"/><rect x="614" y="180" width="5" height="5" fill="#111827"/><rect x="519" y="185" width="5" height="5" fill="#111827"/><rect x="524" y="185" width="5" height="5" fill="#111827"/><rect x="534" y="185" width="5" height="5" fill="#111827"/><rect x="539" y="185" width="5" height="5" fill="#111827"/><rect x="544" y="185" width="5" height="5" fill="#111827"/><rect x="549" y="185" width="5" height="5" fill="#111827"/><rect x="574" y="185" width="5" height="5" fill="#111827"/><rect x="579" y="185" width="5" height="5" fill="#111827"/><rect x="589" y="185" width="5" height="5" fill="#111827"/><rect x="604" y="185" width="5" height="5" fill="#111827"/><rect x="609" y="185" width="5" height="5" fill="#111827"/><rect x="614" y="185" width="5" height="5" fill="#111827"/><rect x="514" y="190" width="5" height="5" fill="#111827"/><rect x="524" y="190" width="5" height="5" fill="#111827"/><rect x="534" y="190" width="5" height="5" fill="#111827"/><rect x="539" y="190" width="5" height="5" fill="#111827"/><rect x="544" y="190" width="5" height="5" fill="#111827"/><rect x="549" y="190" width="5" height="5" fill="#111827"/><rect x="559" y="190" width="5" height="5" fill="#111827"/><rect x="579" y="190" width="5" height="5" fill="#111827"/><rect x="614" y="190" width="5" height="5" fill="#111827"/><rect x="514" y="195" width="5" height="5" fill="#111827"/><rect x="524" y="195" width="5" height="5" fill="#111827"/><rect x="529" y="195" width="5" height="5" fill="#111827"/><rect x="544" y="195" width="5" height="5" fill="#111827"/><rect x="574" y="195" width="5" height="5" fill="#111827"/><rect x="584" y="195" width="5" height="5" fill="#111827"/><rect x="594" y="195" width="5" height="5" fill="#111827"/><rect x="599" y="195" width="5" height="5" fill="#111827"/><rect x="609" y="195" width="5" height="5" fill="#111827"/><rect x="614" y="195" width="5" height="5" fill="#111827"/><rect x="514" y="200" width="5" height="5" fill="#111827"/><rect x="519" y="200" width="5" height="5" fill="#111827"/><rect x="524" y="200" width="5" height="5" fill="#111827"/><rect x="529" y="200" width="5" height="5" fill="#111827"/><rect x="534" y="200" width="5" height="5" fill="#111827"/><rect x="539" y="200" width="5" height="5" fill="#111827"/><rect x="544" y="200" width="5" height="5" fill="#111827"/><rect x="554" y="200" width="5" height="5" fill="#111827"/><rect x="574" y="200" width="5" height="5" fill="#111827"/><rect x="579" y="200" width="5" height="5" fill="#111827"/><rect x="584" y="200" width="5" height="5" fill="#111827"/><rect x="594" y="200" width="5" height="5" fill="#111827"/><rect x="599" y="200" width="5" height="5" fill="#111827"/><rect x="604" y="200" width="5" height="5" fill="#111827"/><rect x="609" y="200" width="5" height="5" fill="#111827"/><rect x="614" y="200" width="5" height="5" fill="#111827"/><rect x="514" y="205" width="5" height="5" fill="#111827"/><rect x="544" y="205" width="5" height="5" fill="#111827"/><rect x="554" y="205" width="5" height="5" fill="#111827"/><rect x="559" y="205" width="5" height="5" fill="#111827"/><rect x="564" y="205" width="5" height="5" fill="#111827"/><rect x="574" y="205" width="5" height="5" fill="#111827"/><rect x="584" y="205" width="5" height="5" fill="#111827"/><rect x="589" y="205" width="5" height="5" fill="#111827"/><rect x="604" y="205" width="5" height="5" fill="#111827"/><rect x="614" y="205" width="5" height="5" fill="#111827"/><rect x="514" y="210" width="5" height="5" fill="#111827"/><rect x="524" y="210" width="5" height="5" fill="#111827"/><rect x="529" y="210" width="5" height="5" fill="#111827"/><rect x="534" y="210" width="5" height="5" fill="#111827"/><rect x="544" y="210" width="5" height="5" fill="#111827"/><rect x="574" y="210" width="5" height="5" fill="#111827"/><rect x="579" y="210" width="5" height="5" fill="#111827"/><rect x="584" y="210" width="5" height="5" fill="#111827"/><rect x="594" y="210" width="5" height="5" fill="#111827"/><rect x="599" y="210" width="5" height="5" fill="#111827"/><rect x="514" y="215" width="5" height="5" fill="#111827"/><rect x="524" y="215" width="5" height="5" fill="#111827"/><rect x="529" y="215" width="5" height="5" fill="#111827"/><rect x="534" y="215" width="5" height="5" fill="#111827"/><rect x="544" y="215" width="5" height="5" fill="#111827"/><rect x="549" y="215" width="5" height="5" fill="#111827"/><rect x="579" y="215" width="5" height="5" fill="#111827"/><rect x="604" y="215" width="5" height="5" fill="#111827"/><rect x="609" y="215" width="5" height="5" fill="#111827"/><rect x="614" y="215" width="5" height="5" fill="#111827"/><rect x="514" y="220" width="5" height="5" fill="#111827"/><rect x="524" y="220" width="5" height="5" fill="#111827"/><rect x="529" y="220" width="5" height="5" fill="#111827"/><rect x="534" y="220" width="5" height="5" fill="#111827"/><rect x="544" y="220" width="5" height="5" fill="#111827"/><rect x="589" y="220" width="5" height="5" fill="#111827"/><rect x="594" y="220" width="5" height="5" fill="#111827"/><rect x="604" y="220" width="5" height="5" fill="#111827"/><rect x="514" y="225" width="5" height="5" fill="#111827"/><rect x="544" y="225" width="5" height="5" fill="#111827"/><rect x="549" y="225" width="5" height="5" fill="#111827"/><rect x="554" y="225" width="5" height="5" fill="#111827"/><rect x="559" y="225" width="5" height="5" fill="#111827"/><rect x="564" y="225" width="5" height="5" fill="#111827"/><rect x="569" y="225" width="5" height="5" fill="#111827"/><rect x="574" y="225" width="5" height="5" fill="#111827"/><rect x="599" y="225" width="5" height="5" fill="#111827"/><rect x="514" y="230" width="5" height="5" fill="#111827"/><rect x="519" y="230" width="5" height="5" fill="#111827"/><rect x="524" y="230" width="5" height="5" fill="#111827"/><rect x="529" y="230" width="5" height="5" fill="#111827"/><rect x="534" y="230" width="5" height="5" fill="#111827"/><rect x="539" y="230" width="5" height="5" fill="#111827"/><rect x="544" y="230" width="5" height="5" fill="#111827"/><rect x="549" y="230" width="5" height="5" fill="#111827"/><rect x="559" y="230" width="5" height="5" fill="#111827"/><rect x="579" y="230" width="5" height="5" fill="#111827"/><rect x="584" y="230" width="5" height="5" fill="#111827"/><rect x="614" y="230" width="5" height="5" fill="#111827"/></g>
    <text x="568" y="272" text-anchor="middle" font-size="16" font-family="Courier New, monospace" fill="#111827">MOCK-1-STANDARD-A1</text>
  <rect x="48" y="452" width="648" height="56" rx="16" fill="#eff6ff"/>
    <text x="72" y="486" font-size="18" font-family="Arial, sans-serif" fill="#1d4ed8">Keep this label attached to the parcel until delivery.</text>
</svg>
